<svg id="visual" viewBox="0 0 900 600" width="900" height="600" xmlns="http://www.w3.org/2000/svg" xmlns:xlink="http://www.w3.org/1999/xlink" version="1.1"><g stroke-width="1" stroke-linejoin="bevel"><path d="M407 265L361 176L313 196Z" fill="#297ea6" stroke="#297ea6"></path><path d="M313 196L281 266L407 265Z" fill="#205a7a" stroke="#205a7a"></path><path d="M361 176L294 125L313 196Z" fill="#15384f" stroke="#15384f"></path><path d="M313 196L174 177L281 266Z" fill="#00101c" stroke="#00101c"></path><path d="M407 265L511 177L361 176Z" fill="#297ea6" stroke="#297ea6"></path><path d="M361 176L414 76L294 125Z" fill="#00101c" stroke="#00101c"></path><path d="M471 96L414 76L361 176Z" fill="#15384f" stroke="#15384f"></path><path d="M281 266L373 411L407 265Z" fill="#15384f" stroke="#15384f"></path><path d="M407 265L533 263L511 177Z" fill="#112e42" stroke="#112e42"></path><path d="M261 0L220 121L294 125Z" fill="#1d4e6b" stroke="#1d4e6b"></path><path d="M294 125L220 121L313 196Z" fill="#1d4e6b" stroke="#1d4e6b"></path><path d="M524 411L533 263L407 265Z" fill="#19435d" stroke="#19435d"></path><path d="M511 177L471 96L361 176Z" fill="#081a28" stroke="#081a28"></path><path d="M174 177L173 287L281 266Z" fill="#297ea6" stroke="#297ea6"></path><path d="M281 266L235 383L373 411Z" fill="#246688" stroke="#246688"></path><path d="M220 121L174 177L313 196Z" fill="#0c2435" stroke="#0c2435"></path><path d="M173 287L235 383L281 266Z" fill="#081a28" stroke="#081a28"></path><path d="M235 383L291 439L373 411Z" fill="#205a7a" stroke="#205a7a"></path><path d="M66 122L138 199L174 177Z" fill="#205a7a" stroke="#205a7a"></path><path d="M174 177L138 199L173 287Z" fill="#081a28" stroke="#081a28"></path><path d="M480 0L380 0L414 76Z" fill="#1d4e6b" stroke="#1d4e6b"></path><path d="M414 76L380 0L294 125Z" fill="#19435d" stroke="#19435d"></path><path d="M401 530L524 411L373 411Z" fill="#205a7a" stroke="#205a7a"></path><path d="M373 411L524 411L407 265Z" fill="#00101c" stroke="#00101c"></path><path d="M524 411L598 295L533 263Z" fill="#081a28" stroke="#081a28"></path><path d="M533 263L620 187L511 177Z" fill="#15384f" stroke="#15384f"></path><path d="M595 0L480 0L471 96Z" fill="#19435d" stroke="#19435d"></path><path d="M380 0L261 0L294 125Z" fill="#205a7a" stroke="#205a7a"></path><path d="M220 121L66 122L174 177Z" fill="#15384f" stroke="#15384f"></path><path d="M138 199L104 283L173 287Z" fill="#15384f" stroke="#15384f"></path><path d="M173 287L103 370L235 383Z" fill="#297ea6" stroke="#297ea6"></path><path d="M235 383L196 467L291 439Z" fill="#277297" stroke="#277297"></path><path d="M631 106L471 96L511 177Z" fill="#00101c" stroke="#00101c"></path><path d="M471 96L480 0L414 76Z" fill="#1d4e6b" stroke="#1d4e6b"></path><path d="M598 295L620 187L533 263Z" fill="#19435d" stroke="#19435d"></path><path d="M261 0L228 0L220 121Z" fill="#205a7a" stroke="#205a7a"></path><path d="M103 370L196 467L235 383Z" fill="#246688" stroke="#246688"></path><path d="M291 439L401 530L373 411Z" fill="#205a7a" stroke="#205a7a"></path><path d="M196 467L277 507L291 439Z" fill="#205a7a" stroke="#205a7a"></path><path d="M104 283L103 370L173 287Z" fill="#081a28" stroke="#081a28"></path><path d="M524 411L612 375L598 295Z" fill="#277297" stroke="#277297"></path><path d="M598 295L692 261L620 187Z" fill="#081a28" stroke="#081a28"></path><path d="M277 507L401 530L291 439Z" fill="#112e42" stroke="#112e42"></path><path d="M524 411L574 483L612 375Z" fill="#112e42" stroke="#112e42"></path><path d="M620 187L631 106L511 177Z" fill="#00101c" stroke="#00101c"></path><path d="M671 79L631 106L724 187Z" fill="#277297" stroke="#277297"></path><path d="M77 0L66 122L220 121Z" fill="#297ea6" stroke="#297ea6"></path><path d="M0 174L0 263L104 283Z" fill="#112e42" stroke="#112e42"></path><path d="M104 283L0 263L103 370Z" fill="#246688" stroke="#246688"></path><path d="M401 530L512 525L524 411Z" fill="#112e42" stroke="#112e42"></path><path d="M512 525L574 483L524 411Z" fill="#277297" stroke="#277297"></path><path d="M631 106L595 0L471 96Z" fill="#00101c" stroke="#00101c"></path><path d="M738 395L692 261L612 375Z" fill="#246688" stroke="#246688"></path><path d="M612 375L692 261L598 295Z" fill="#19435d" stroke="#19435d"></path><path d="M631 106L671 79L595 0Z" fill="#246688" stroke="#246688"></path><path d="M724 187L631 106L620 187Z" fill="#246688" stroke="#246688"></path><path d="M0 174L104 283L138 199Z" fill="#277297" stroke="#277297"></path><path d="M205 600L277 507L196 467Z" fill="#0c2435" stroke="#0c2435"></path><path d="M66 122L0 174L138 199Z" fill="#081a28" stroke="#081a28"></path><path d="M228 0L77 0L220 121Z" fill="#081a28" stroke="#081a28"></path><path d="M66 122L0 72L0 174Z" fill="#246688" stroke="#246688"></path><path d="M692 261L724 187L620 187Z" fill="#297ea6" stroke="#297ea6"></path><path d="M260 600L420 600L401 530Z" fill="#277297" stroke="#277297"></path><path d="M401 530L495 600L512 525Z" fill="#246688" stroke="#246688"></path><path d="M512 525L605 600L574 483Z" fill="#15384f" stroke="#15384f"></path><path d="M260 600L401 530L277 507Z" fill="#246688" stroke="#246688"></path><path d="M68 499L196 467L103 370Z" fill="#1d4e6b" stroke="#1d4e6b"></path><path d="M205 600L260 600L277 507Z" fill="#19435d" stroke="#19435d"></path><path d="M420 600L495 600L401 530Z" fill="#277297" stroke="#277297"></path><path d="M0 396L68 499L103 370Z" fill="#246688" stroke="#246688"></path><path d="M0 263L0 396L103 370Z" fill="#246688" stroke="#246688"></path><path d="M77 0L0 72L66 122Z" fill="#112e42" stroke="#112e42"></path><path d="M68 499L205 600L196 467Z" fill="#0c2435" stroke="#0c2435"></path><path d="M714 493L612 375L574 483Z" fill="#15384f" stroke="#15384f"></path><path d="M714 493L738 395L612 375Z" fill="#277297" stroke="#277297"></path><path d="M692 261L768 296L724 187Z" fill="#0c2435" stroke="#0c2435"></path><path d="M738 395L768 296L692 261Z" fill="#112e42" stroke="#112e42"></path><path d="M77 0L0 0L0 72Z" fill="#297ea6" stroke="#297ea6"></path><path d="M605 600L714 493L574 483Z" fill="#246688" stroke="#246688"></path><path d="M738 395L810 389L768 296Z" fill="#0c2435" stroke="#0c2435"></path><path d="M495 600L605 600L512 525Z" fill="#00101c" stroke="#00101c"></path><path d="M900 169L799 198L900 315Z" fill="#112e42" stroke="#112e42"></path><path d="M768 296L799 198L724 187Z" fill="#112e42" stroke="#112e42"></path><path d="M825 66L737 0L671 79Z" fill="#277297" stroke="#277297"></path><path d="M671 79L737 0L595 0Z" fill="#205a7a" stroke="#205a7a"></path><path d="M825 66L671 79L724 187Z" fill="#246688" stroke="#246688"></path><path d="M0 396L0 510L68 499Z" fill="#081a28" stroke="#081a28"></path><path d="M68 499L63 600L205 600Z" fill="#205a7a" stroke="#205a7a"></path><path d="M0 510L63 600L68 499Z" fill="#0c2435" stroke="#0c2435"></path><path d="M807 521L810 389L738 395Z" fill="#277297" stroke="#277297"></path><path d="M605 600L678 600L714 493Z" fill="#297ea6" stroke="#297ea6"></path><path d="M714 493L807 521L738 395Z" fill="#1d4e6b" stroke="#1d4e6b"></path><path d="M799 198L825 66L724 187Z" fill="#19435d" stroke="#19435d"></path><path d="M900 169L825 66L799 198Z" fill="#081a28" stroke="#081a28"></path><path d="M0 510L0 600L63 600Z" fill="#0c2435" stroke="#0c2435"></path><path d="M825 66L828 0L737 0Z" fill="#112e42" stroke="#112e42"></path><path d="M678 600L807 521L714 493Z" fill="#0c2435" stroke="#0c2435"></path><path d="M900 315L799 198L768 296Z" fill="#081a28" stroke="#081a28"></path><path d="M825 66L900 0L828 0Z" fill="#00101c" stroke="#00101c"></path><path d="M900 315L768 296L810 389Z" fill="#297ea6" stroke="#297ea6"></path><path d="M900 431L900 315L810 389Z" fill="#205a7a" stroke="#205a7a"></path><path d="M900 169L900 96L825 66Z" fill="#205a7a" stroke="#205a7a"></path><path d="M807 521L900 431L810 389Z" fill="#15384f" stroke="#15384f"></path><path d="M678 600L811 600L807 521Z" fill="#205a7a" stroke="#205a7a"></path><path d="M807 521L900 489L900 431Z" fill="#297ea6" stroke="#297ea6"></path><path d="M900 96L900 0L825 66Z" fill="#246688" stroke="#246688"></path><path d="M900 600L900 489L807 521Z" fill="#19435d" stroke="#19435d"></path><path d="M811 600L900 600L807 521Z" fill="#15384f" stroke="#15384f"></path></g></svg>